<svg xmlns="http://www.w3.org/2000/svg" xmlns:xlink="http://www.w3.org/1999/xlink" version="1.1" x="0px" y="0px" viewBox="0 0 100 125" enable-background="new 0 0 100 100" xml:space="preserve"><path d="M73.247,31.261l8.199,7.888c0.189,0.181,0.416,0.344,0.664,0.466c1.305,0.642,2.883,0.104,3.524-1.201  c0.642-1.306,0.104-2.884-1.201-3.525l-10.211-5.02c-0.094,0.267-0.212,0.527-0.382,0.77C73.671,30.881,73.466,31.081,73.247,31.261  z"/><path d="M83.219,58.703c-1.172-0.861-2.82-0.609-3.682,0.562l-6.738,9.168c0.246,0.141,0.482,0.303,0.691,0.512  c0.209,0.211,0.37,0.448,0.508,0.694l9.208-6.683c0.211-0.154,0.412-0.35,0.575-0.571C84.643,61.212,84.391,59.564,83.219,58.703z"/><circle cx="28.832" cy="28.802" r="2.384"/><path d="M29.643,31.896c-0.287,0.075-0.573,0.095-0.855,0.091l1.154,11.319c0.027,0.26,0.096,0.531,0.205,0.784  c0.581,1.333,2.133,1.943,3.466,1.362c1.334-0.58,1.943-2.133,1.363-3.466l-4.544-10.431C30.188,31.698,29.929,31.82,29.643,31.896z  "/><path d="M28.022,25.708c0.286-0.074,0.572-0.094,0.854-0.09l-1.154-11.319c-0.027-0.26-0.096-0.532-0.205-0.784  c-0.581-1.334-2.132-1.943-3.466-1.362c-1.334,0.58-1.943,2.132-1.363,3.466l4.544,10.43C27.476,25.906,27.735,25.783,28.022,25.708  z"/><circle cx="71.223" cy="28.802" r="2.385"/><path d="M58.011,22.717l10.21,5.02c0.095-0.267,0.213-0.527,0.383-0.771c0.17-0.242,0.375-0.442,0.594-0.621l-8.198-7.889  c-0.189-0.181-0.417-0.344-0.665-0.466c-1.305-0.642-2.883-0.104-3.524,1.202C56.168,20.497,56.706,22.075,58.011,22.717z"/><path d="M82.031,49.993c3.417-1.743,6.414-4.304,8.676-7.529c7.533-10.744,4.921-25.613-5.823-33.146  c-4.025-2.822-8.743-4.314-13.644-4.314c-7.761,0-15.053,3.79-19.503,10.138c-0.642,0.915-1.209,1.866-1.711,2.843  C46.029,10.146,37.911,5,28.846,5c-2.03,0-4.063,0.263-6.044,0.782C10.109,9.106,2.487,22.14,5.812,34.833  c1.762,6.725,6.3,12.141,12.186,15.156c-6.38,3.256-11.167,9.326-12.584,16.746c-2.461,12.889,6.022,25.377,18.91,27.839  C25.805,94.856,27.315,95,28.811,95C37.922,95,46.025,89.794,50,81.978c1.113,2.186,2.567,4.209,4.345,5.999  c4.5,4.527,10.494,7.021,16.878,7.021c6.329,0,12.287-2.458,16.776-6.92c9.306-9.252,9.351-24.349,0.101-33.654  C86.294,52.606,84.245,51.124,82.031,49.993z M55.999,18.128c3.477-4.96,9.175-7.92,15.241-7.92c3.825,0,7.511,1.165,10.656,3.371  c8.394,5.885,10.436,17.503,4.55,25.897c-3.478,4.96-9.176,7.921-15.242,7.921c-3.826,0-7.511-1.166-10.656-3.372  c-4.066-2.851-6.779-7.115-7.639-12.007c-0.188-1.075-0.277-2.152-0.279-3.221c0-0.057,0-0.113-0.001-0.17  C52.656,24.891,53.807,21.253,55.999,18.128z M10.845,33.515c-2.597-9.918,3.357-20.101,13.275-22.698  c1.551-0.406,3.141-0.612,4.726-0.612c8.439,0,15.83,5.71,17.972,13.887c0.402,1.531,0.598,3.07,0.607,4.585  c0,0.037,0,0.074,0,0.111c0.006,8.253-5.533,15.813-13.882,18.001c-1.548,0.405-3.137,0.611-4.72,0.611c-0.008,0-0.016,0-0.023,0  C20.368,47.392,12.987,41.685,10.845,33.515z M47.051,74.688c-1.672,8.755-9.343,15.108-18.24,15.108  c-1.17,0-2.352-0.112-3.512-0.333C15.23,87.539,8.602,77.782,10.525,67.712c1.671-8.752,9.336-15.104,18.229-15.109  c0.021,0,0.043,0.002,0.064,0.002c0.002,0,0.004,0,0.006,0c1.15,0.003,2.311,0.113,3.451,0.332  C42.345,54.859,48.974,64.616,47.051,74.688z M84.329,84.387c-3.507,3.486-8.162,5.406-13.106,5.406  c-4.987,0-9.671-1.948-13.187-5.486c-3.502-3.521-5.422-8.196-5.407-13.163c0.015-4.965,1.963-9.629,5.485-13.13  c3.507-3.487,8.162-5.407,13.107-5.407c4.988,0,9.671,1.948,13.188,5.485C91.637,65.362,91.601,77.158,84.329,84.387z"/><circle cx="71.222" cy="71.2" r="2.385"/><path d="M68.446,72.761l-9.208,6.683c-0.211,0.154-0.411,0.35-0.575,0.572c-0.861,1.171-0.609,2.819,0.562,3.681  c1.171,0.861,2.819,0.609,3.682-0.562l6.737-9.168c-0.246-0.14-0.482-0.302-0.691-0.512S68.585,73.007,68.446,72.761z"/><circle cx="28.788" cy="71.199" r="2.385"/><path d="M14.422,65.808c-1.453-0.051-2.672,1.088-2.721,2.542c-0.051,1.453,1.088,2.672,2.541,2.721l11.371,0.389  c-0.023-0.282-0.023-0.568,0.033-0.859c0.055-0.292,0.16-0.558,0.286-0.81l-10.714-3.831C14.972,65.872,14.699,65.817,14.422,65.808  z"/><path d="M31.93,71.8c-0.057,0.29-0.161,0.558-0.287,0.811l10.713,3.829c0.248,0.087,0.522,0.143,0.797,0.152  c1.454,0.049,2.672-1.089,2.722-2.542s-1.088-2.672-2.542-2.722l-11.37-0.389C31.985,71.222,31.985,71.509,31.93,71.8z"/><text x="0" y="115" fill="#000000" font-size="5px" font-weight="bold" font-family="'Helvetica Neue', Helvetica, Arial-Unicode, Arial, Sans-serif">Created by Iulia Strejan</text><text x="0" y="120" fill="#000000" font-size="5px" font-weight="bold" font-family="'Helvetica Neue', Helvetica, Arial-Unicode, Arial, Sans-serif">from the Noun Project</text></svg>